<svg width="48" height="48" viewBox="0 0 48 48" fill="none" xmlns="http://www.w3.org/2000/svg"><g clip-path="url(#clip0_10_195)">
    <path fill-rule="evenodd" clip-rule="evenodd" d="M23.9285 0C10.6967 0 0 10.7755 0 24.1063C0 34.7623 6.85371 43.7824 16.3616 46.9749C17.5504 47.2149 17.9858 46.4562 17.9858 45.818C17.9858 45.2591 17.9466 43.3435 17.9466 41.3476C11.2903 42.7847 9.90416 38.474 9.90416 38.474C8.83445 35.6802 7.24947 34.9621 7.24947 34.9621C5.07086 33.4854 7.40816 33.4854 7.40816 33.4854C9.82482 33.6451 11.0929 35.9598 11.0929 35.9598C13.2318 39.6313 16.6785 38.594 18.0651 37.9553C18.263 36.3987 18.8973 35.3211 19.5708 34.7226C14.2619 34.1638 8.67625 32.0885 8.67625 22.8289C8.67625 20.1948 9.62645 18.0397 11.1321 16.3636C10.8945 15.7651 10.0624 13.2901 11.3701 9.97763C11.3701 9.97763 13.3905 9.33894 17.9461 12.4521C19.8965 11.9244 21.908 11.656 23.9285 11.6537C25.9489 11.6537 28.0085 11.9334 29.9104 12.4521C34.4664 9.33894 36.4869 9.97763 36.4869 9.97763C37.7946 13.2901 36.962 15.7651 36.7244 16.3636C38.2697 18.0397 39.1807 20.1948 39.1807 22.8289C39.1807 32.0885 33.5951 34.1236 28.2465 34.7226C29.1184 35.4808 29.8707 36.9174 29.8707 39.1925C29.8707 42.4251 29.8315 45.0196 29.8315 45.8175C29.8315 46.4562 30.2674 47.2149 31.4557 46.9753C40.9636 43.7819 47.8173 34.7623 47.8173 24.1063C47.8565 10.7755 37.1207 0 23.9285 0Z" fill="black" /></g><defs><clipPath id="clip0_10_195">
    <path fill="white" d="M0 0h48v47.0204H0Z" /></clipPath></defs>
</svg>