<svg width="48" height="48" viewBox="0 0 48 48" fill="none" xmlns="http://www.w3.org/2000/svg">
<path d="M39.36 3.84H8.64C5.9904 3.84 3.84 5.9904 3.84 8.64V39.36C3.84 42.0096 5.9904 44.16 8.64 44.16H39.36C42.0096 44.16 44.16 42.0096 44.16 39.36V8.64C44.16 5.9904 42.0096 3.84 39.36 3.84ZM16.32 19.2V37.44H10.56V19.2H16.32ZM10.56 13.8912C10.56 12.5472 11.712 11.52 13.44 11.52C15.168 11.52 16.2528 12.5472 16.32 13.8912C16.32 15.2352 15.2448 16.32 13.44 16.32C11.712 16.32 10.56 15.2352 10.56 13.8912ZM37.44 37.44H31.68C31.68 37.44 31.68 28.5504 31.68 27.84C31.68 25.92 30.72 24 28.32 23.9616H28.2432C25.92 23.9616 24.96 25.9392 24.96 27.84C24.96 28.7136 24.96 37.44 24.96 37.44H19.2V19.2H24.96V21.6576C24.96 21.6576 26.8128 19.2 30.5376 19.2C34.3488 19.2 37.44 21.8208 37.44 27.1296V37.44Z" fill="black"/>
</svg>
