<svg width="48" height="48" viewBox="0 0 48 48" fill="none" xmlns="http://www.w3.org/2000/svg">
<g id="twitter 1" clip-path="url(#clip0_10_199)">
<path id="Vector" d="M48.06 10.02C46.2863 10.8075 44.385 11.3362 42.3863 11.5762C44.4263 10.3537 45.9938 8.41874 46.7288 6.11624C44.8238 7.24499 42.705 8.06624 40.4588 8.50874C38.6588 6.58874 36.0938 5.39249 33.255 5.39249C27.8025 5.39249 23.3813 9.80999 23.3813 15.2625C23.3813 16.035 23.4713 16.7887 23.64 17.5125C15.435 17.1 8.16376 13.17 3.29251 7.19624C2.44126 8.65874 1.95751 10.3537 1.95751 12.1612C1.95751 15.585 3.69751 18.6075 6.34876 20.3812C4.72876 20.3287 3.20626 19.8825 1.87501 19.1437C1.87501 19.185 1.87501 19.2262 1.87501 19.2675C1.87501 24.0525 5.28001 28.0387 9.79126 28.95C8.96626 29.175 8.09251 29.295 7.19251 29.295C6.55501 29.295 5.93626 29.235 5.33251 29.115C6.59251 33.0337 10.2375 35.895 14.5538 35.9737C11.1788 38.6212 6.92251 40.1962 2.29501 40.1962C1.49626 40.1962 0.712507 40.1512 -0.0562439 40.0575C4.30876 42.8625 9.49876 44.4937 15.075 44.4937C33.2325 44.4937 43.1625 29.4525 43.1625 16.41C43.1625 15.9825 43.1513 15.5512 43.1363 15.1312C45.0638 13.74 46.7363 12 48.06 10.02Z" fill="black"/>
</g>
<defs>
<clipPath id="clip0_10_199">
<rect width="48" height="48" fill="white"/>
</clipPath>
</defs>
</svg>
